<?xml version="1.0" encoding="UTF-8"?><svg id="Layer_2" xmlns="http://www.w3.org/2000/svg" width="175.46" height="175.46" xmlns:xlink="http://www.w3.org/1999/xlink" viewBox="0 0 175.46 175.46"><defs><style>.cls-1{fill:url(#linear-gradient);}.cls-1,.cls-2,.cls-3,.cls-4{stroke-width:0px;}.cls-2{fill:#f55e00;}.cls-5{stroke:#fff;stroke-width:2px;}.cls-5,.cls-6{stroke-miterlimit:10;}.cls-4{fill:#f58c00;}.cls-6{fill:#ffcf2f;stroke:#c86500;}</style><linearGradient id="linear-gradient" x1="4" y1="87.73" x2="171.46" y2="87.73" gradientTransform="translate(152.96 -17.81) rotate(76.72)" gradientUnits="userSpaceOnUse"><stop offset="0" stop-color="#ffda5e"/><stop offset="1" stop-color="#fff"/></linearGradient></defs><g id="Layer_1-2"><circle class="cls-1" cx="87.73" cy="87.73" r="83.73" transform="translate(-17.81 152.96) rotate(-76.72)"/><path class="cls-3" d="m87.73,8c43.96,0,79.73,35.77,79.73,79.73s-35.77,79.73-79.73,79.73S8,131.7,8,87.73,43.77,8,87.73,8m0-8C39.28,0,0,39.28,0,87.73s39.28,87.73,87.73,87.73,87.73-39.28,87.73-87.73S136.18,0,87.73,0h0Z"/><path class="cls-2" d="m82.89,155.88c-5.38,0-9.62-1.66-14.53-3.57-3.28-1.28-7.01-2.74-11.59-3.91-6.57-1.68-11.58-6.57-15.99-10.89-1.11-1.08-2.15-2.1-3.2-3.06-6.91-6.3-10.65-15.06-10.26-24.02.39-8.94,4.66-16.97,12.03-22.61.44-.34.89-.67,1.36-1,3.91-2.75,8.44-6.99,7.78-11.52-.47-3.24-3.52-5.81-9.06-7.66-2.1-.7-3.24-2.4-3.5-5.19-.88-9.46,8.27-26.11,12.42-31.61-.24,13,1.67,21.42,5.83,25.74,2.07,2.15,4.68,3.24,7.75,3.24,5.68,0,11.75-3.81,15.37-6.08.89-.56,1.66-1.04,2.2-1.33,19-10.07,24.69-33.33,26.34-44.14,4.61,11.38,8.64,26.29,3.72,29.35-5.28,3.29-11.17,13.64-9.65,18.93.55,1.94,2.09,3.05,4.2,3.05,3.29,0,8.2-2.61,15-7.97.8-.63,1.81-.91,3.27-.91.92,0,1.93.11,2.99.22,1.21.13,2.46.26,3.76.26,1.5,0,2.81-.18,4.03-.56,1.55-.48,2.7-1.47,3.31-2.87.29-.67.45-1.4.51-2.14,2.84,4.47,5.58,10.19,4.48,14.03-.54,1.91-2.02,3.23-4.51,4.03-4.94,1.59-8.21,4.24-9.71,7.88-2.38,5.76.65,11.75.78,12,.16.28,11.67,19.99,6.49,38.49-2.67,9.52-9.31,17.17-19.73,22.72-14.38,7.66-24.21,11.07-31.88,11.07h0ZM49.96,29.08h0Z"/><path class="cls-4" d="m106.3,13.88c.64,1.79,1.27,3.7,1.84,5.65,3.14,10.73,2.37,15.73.6,16.83-5.75,3.58-12.01,14.64-10.3,20.62.74,2.59,2.85,4.14,5.64,4.14,3.64,0,8.85-2.71,15.93-8.29.37-.29.94-.59,2.35-.59.84,0,1.81.1,2.83.21,1.25.13,2.53.27,3.92.27,1.65,0,3.11-.2,4.48-.62,1.65-.51,2.94-1.48,3.79-2.84,2,3.68,3.35,7.49,2.63,10.01-.25.89-.89,2.17-3.52,3.01-5.38,1.73-8.96,4.67-10.64,8.74-2.64,6.39.69,12.99.84,13.26l.04.08.05.08c.11.19,11.3,19.31,6.29,37.22-2.55,9.12-8.94,16.46-19,21.82-14.15,7.53-23.77,10.89-31.18,10.89-5.1,0-9.02-1.53-13.98-3.47-3.32-1.3-7.09-2.77-11.77-3.96-6.18-1.58-11.03-6.32-15.31-10.51-1.12-1.09-2.17-2.12-3.24-3.1-6.58-6-10.14-14.33-9.77-22.85.37-8.49,4.43-16.12,11.44-21.48.43-.33.87-.65,1.31-.96,4.26-3,9.17-7.68,8.4-12.97-.56-3.84-3.95-6.82-10.07-8.86-.98-.33-2.03-.97-2.41-3.28-1.12-6.92,4.91-19.82,9.37-27.2.3,10.66,2.35,17.85,6.23,21.88,2.37,2.46,5.34,3.7,8.83,3.7,6.11,0,12.41-3.95,16.17-6.31.86-.54,1.61-1.01,2.1-1.27,16.8-8.9,23.49-27.72,26.12-39.86m-1.34-11.34s-2.01,35.74-26.18,48.55c-2.85,1.51-10.25,7.23-16.86,7.23s-12.92-6.23-12.01-29.96c.02-.48-.1-.71-.33-.71-2.98,0-24.43,36.81-10.63,41.41,14.88,4.96,5.59,13.22.9,16.53-.48.34-.95.68-1.41,1.03-16.2,12.4-16.84,35.27-1.86,48.93,5.37,4.9,11.22,12.1,19.83,14.29,11.41,2.91,17.14,7.53,26.49,7.53,7.25,0,16.66-2.77,32.59-11.25,39.09-20.81,13.88-63.22,13.88-63.22,0,0-6.71-13.02,8.06-17.77,14.77-4.75-3.36-26.03-3.36-26.03,0,0,4.03,8.47-1.34,10.12-1.2.37-2.4.49-3.59.49-2.37,0-4.68-.49-6.75-.49-1.56,0-2.98.27-4.2,1.23-7.04,5.55-11.5,7.64-14.07,7.64-6.93,0-.28-15.15,6.24-19.21,8.95-5.58-5.37-36.36-5.37-36.36h0Z"/><path class="cls-6" d="m86.64,61.86l-20.99,27.8c-4.55,6.03-6.45,13.42-5.3,20.69h0c1.93,12.28,13.02,21.56,26.45,22.13l2.72.11c6.64.28,14.14-5.87,18.11-11.83l1.54-5.24c2.15-9.69.09-14.9-2.07-18.6l-20.45-35.07Z"/><path class="cls-5" d="m59.52,44.34h48.38c6.26-1.14,18.72-11.25,10.1,1.89-4.25,6.47,18.49-5.23,6.59,5.18-1.33,1.16-4.69,5.15-7.14,8.05s-5.23,6.1-8.35,9.6c-3.12,3.51-6.34,7.86-9.66,13.07-3.32,5.21-6.36,11.56-9.12,19.08-1.16,3.32-1.99,6.07-2.47,8.25-.48,2.18-1.02,5.02-1.6,8.5s-1.09,6.15-1.53,8c-1.02,4.28,7.15,3.55,5.28,5.2-1.86,1.66-13.95,6.19-17.05,6.19s-5.33-.89-7.12-2.68c-1.79-1.78-2.69-4.42-2.69-7.9,0-2.69.65-6.34,1.96-10.96s3.44-10.15,6.39-16.59c2.95-6.44,6.65-13.06,11.08-19.83,4.43-6.78,9.7-13.53,15.8-20.24h-38.87c-4.07,0-7.11-.64-9.12-1.92-2.01-1.28-3.01-3.28-3.01-6.01,0-2.9,3.39-8.13,5.24-9.48,12.86-9.41,3.06,2.62,6.89,2.62Z"/></g></svg>