<?xml version="1.0" encoding="UTF-8"?><svg id="Layer_2" xmlns="http://www.w3.org/2000/svg" width="175.46" height="175.46" xmlns:xlink="http://www.w3.org/1999/xlink" viewBox="0 0 175.46 175.46"><defs><style>.cls-1{fill:url(#linear-gradient);}.cls-1,.cls-2,.cls-3,.cls-4{stroke-width:0px;}.cls-5{fill:#39b54a;stroke:#000;stroke-miterlimit:10;}.cls-3{fill:red;}.cls-4{fill:#fff;}</style><linearGradient id="linear-gradient" x1="4" y1="87.73" x2="171.46" y2="87.73" gradientTransform="translate(87.73 -36.34) rotate(45)" gradientUnits="userSpaceOnUse"><stop offset="0" stop-color="#ffda5e"/><stop offset="1" stop-color="#fff"/></linearGradient></defs><g id="Layer_2-2"><circle class="cls-1" cx="87.73" cy="87.73" r="83.73" transform="translate(-36.34 87.73) rotate(-45)"/><path class="cls-2" d="m87.73,8c43.96,0,79.73,35.77,79.73,79.73s-35.77,79.73-79.73,79.73S8,131.7,8,87.73,43.77,8,87.73,8m0-8C39.28,0,0,39.28,0,87.73s39.28,87.73,87.73,87.73,87.73-39.28,87.73-87.73S136.18,0,87.73,0h0Z"/><path class="cls-4" d="m93.04,162.95c-1.81,0-3.67-.56-5.38-1.62l-62.01-38.33c-3.13-1.94-4.39-6.61-2.79-10.41L58.88,26.68c1.33-3.18,4.64-5.48,7.87-5.48.52,0,1.03.06,1.51.18l70.8,17.37c2.91.71,5.24,2.44,6.4,4.74.98,1.94,1.03,4.16.16,6.25l-45.53,108.58c-1.22,2.91-3.85,4.65-7.05,4.65Z"/><path class="cls-2" d="m66.74,23.69h0c.32,0,.63.04.92.11l70.81,17.37c2.2.54,3.93,1.79,4.76,3.43.65,1.3.68,2.73.08,4.16l-45.53,108.58c-.83,1.98-2.56,3.11-4.74,3.11-1.34,0-2.75-.43-4.07-1.25l-62.01-38.33c-2.06-1.27-2.9-4.69-1.8-7.31L61.18,27.64c.94-2.25,3.33-3.95,5.56-3.95m0-5c-4.18,0-8.42,2.83-10.17,7.01L20.54,111.62c-2.05,4.9-.4,10.91,3.78,13.5l62.01,38.33c2.18,1.35,4.5,2,6.7,2,4.03,0,7.67-2.18,9.35-6.18l45.53-108.58c2.59-6.19-1.2-12.65-8.26-14.38l-70.81-17.37c-.69-.17-1.4-.25-2.11-.25h0Z"/><path class="cls-2" d="m71.73,47.26c2.87-.04,5.49-1.19,7.61-3.11l-2.56-1.06c-.03,1.33-.06,2.65-.1,3.98-.02,1.01-.08,2.09.55,2.95.69.94,1.79,1.14,2.88.88,1.35-.31,2.58-.76,3.98-.87,2.63-.22,5.26.1,7.86.48.47.07,1.08.07,1.52.28.23.11.23-.17.07.29-.1.31-.19.63-.29.94-.43,1.41-.86,2.82-1.28,4.22s1.51,2.61,2.51,1.46c1.17-1.35,2.89-3.3,4.83-3.39.99-.05,1.6.7,2.4,1.16s1.81.68,2.76.44c1.47-.37,2.9-2.56,4.44-2.2,2.35.56,1.64,3.68,1.28,5.33-.34,1.56,1.35,2.36,2.51,1.46,3.44-2.67,8.19-3.43,12.34-2.33,1.87.49,2.67-2.4.8-2.89-5.29-1.4-10.95-.26-15.26,3.1l2.51,1.46c.58-2.66,1-5.75-1.21-7.81-2.08-1.94-4.64-1.55-6.73.06-.35.27-.82.77-1.27.87-.5.12-.84-.21-1.24-.49-1.06-.74-2.16-1.24-3.49-1.15-2.76.19-5.06,2.26-6.79,4.25l2.51,1.46c.43-1.41.86-2.82,1.28-4.22.34-1.13.81-2.36.16-3.48-1.14-1.99-4.53-1.89-6.49-2.12-2.64-.31-5.3-.39-7.92.1-.55.1-1.51.19-1.99.51l-.39.13c.16.43.22.52.17.26.05-.05-.01-.6,0-.68.02-1.48.07-2.96.11-4.44.03-1.36-1.63-1.9-2.56-1.06-1.52,1.39-3.41,2.2-5.48,2.24-1.93.03-1.93,3.03,0,3h0Z"/><polygon class="cls-5" points="65.36 49.44 54.74 45.9 59.4 34.8 70.16 38 65.36 49.44"/><path class="cls-2" d="m63.56,66.74c2.81.09,5.42-1,7.5-2.86l-2.56-1.06c-.04,1.35-.08,2.7-.13,4.05-.03,1.02-.1,2.13.52,3.01.67.94,1.77,1.17,2.85.94,1.29-.27,2.48-.63,3.81-.68,2.62-.11,5.2.36,7.75.88.33.07,1.4.11,1.61.41.08.12-.27,1.01-.35,1.28-.43,1.42-.86,2.83-1.29,4.25s1.51,2.6,2.51,1.46c1.12-1.28,2.86-3.24,4.75-3.18.97.03,1.55.86,2.32,1.33s1.65.71,2.57.55c.86-.15,1.56-.61,2.25-1.12s1.36-1.19,2.27-.89c2.27.76,1.54,3.89,1.17,5.59-.25,1.14,1.08,2.55,2.2,1.69,3.56-2.69,8.17-3.33,12.4-1.96,1.84.6,2.63-2.3.8-2.89-4.9-1.59-10.56-.87-14.71,2.26l2.2,1.69c.59-2.71,1.02-5.82-1.14-7.98-1.95-1.94-4.48-1.79-6.57-.22-.35.26-.86.8-1.31.86-.51.07-.95-.44-1.33-.73-1.01-.79-2.16-1.25-3.46-1.18-2.64.15-4.88,2.16-6.54,4.05l2.51,1.46c.43-1.42.86-2.83,1.29-4.25.33-1.08.78-2.24.25-3.33-1.03-2.15-4.38-2.24-6.4-2.58-2.65-.43-5.32-.67-7.98-.23-.43.07-1.72.15-1.99.46-.23,0-.25.07-.08.2.11.19.14.2.1.01,0-.23,0-.47,0-.7.04-1.51.09-3.02.14-4.53.04-1.37-1.64-1.89-2.56-1.06-1.51,1.35-3.36,2.04-5.38,1.98s-1.93,2.94,0,3h0Z"/><polygon class="cls-5" points="57.29 68.69 46.91 64.57 51.57 53.48 62.09 57.25 57.29 68.69"/><path class="cls-2" d="m55.88,85.05c2.76.22,5.34-.81,7.4-2.61l-2.56-1.06c-.05,1.37-.1,2.75-.16,4.12-.04,1.04-.11,2.16.5,3.07.64.95,1.75,1.2,2.83,1,1.26-.23,2.43-.51,3.73-.51,2.58,0,5.11.62,7.59,1.26.32.08,1.4.18,1.57.51.12.22-.31,1.11-.38,1.35-.43,1.42-.87,2.85-1.3,4.27s1.51,2.59,2.51,1.46c1.08-1.21,3.02-3.39,4.87-2.95.82.19,1.37,1.01,2.05,1.46.81.54,1.76.81,2.73.6.89-.2,1.57-.72,2.3-1.24.58-.42,1.15-.87,1.89-.56,2.23.92,1.51,4.07,1.12,5.84-.25,1.15,1.07,2.53,2.2,1.69,3.56-2.61,8.09-2.95,12.16-1.39,1.8.69,2.59-2.21.8-2.89-4.73-1.81-10.34-1.33-14.47,1.69l2.2,1.69c.6-2.72,1.02-5.72-.96-8-1.77-2.03-4.33-2.19-6.46-.67-.34.25-.85.78-1.29.86-.53.1-.88-.39-1.25-.71-.96-.81-2.02-1.4-3.3-1.43-2.7-.05-5.03,1.97-6.72,3.87l2.51,1.46c.43-1.42.87-2.85,1.3-4.27.33-1.09.77-2.25.27-3.36-.98-2.14-4.28-2.42-6.29-2.85-2.57-.55-5.22-.91-7.84-.55-.42.06-1.68.09-1.96.38-.23,0-.25.06-.06.15.13.15.17.14.12-.04.03-.23,0-.49,0-.72.05-1.54.12-3.07.18-4.61.05-1.38-1.64-1.87-2.56-1.06-1.49,1.31-3.31,1.89-5.27,1.73s-1.91,2.85,0,3h0Z"/><polygon class="cls-5" points="49.7 86.79 39.55 82.13 44.2 71.03 54.5 75.35 49.7 86.79"/><path class="cls-2" d="m47.95,103.97c2.7.35,5.25-.62,7.29-2.36l-2.56-1.06c-.06,1.4-.12,2.8-.19,4.19-.04,1-.13,2.08.4,2.99.56.98,1.59,1.34,2.67,1.23,1.29-.14,2.46-.42,3.78-.36,2.64.11,5.22.93,7.73,1.72.25.08,1.14.24,1.27.51.16.32-.27,1.14-.37,1.46-.44,1.43-.87,2.86-1.31,4.29s1.5,2.58,2.51,1.46,2.99-3.32,4.78-2.73c.83.28,1.37,1.19,2.08,1.68s1.53.74,2.4.63,1.52-.53,2.2-1.01,1.27-1.06,2.1-.61c2.14,1.15,1.44,4.19,1.02,6.07-.26,1.16,1.06,2.5,2.2,1.69,3.38-2.4,7.79-2.64,11.55-.96,1.75.78,3.28-1.8,1.51-2.59-4.69-2.09-10.29-2.1-14.58.96l2.2,1.69c.63-2.83,1.04-5.93-1.01-8.29-1.79-2.07-4.23-2.14-6.38-.65-.3.21-.79.72-1.18.73-.42,0-.8-.54-1.08-.81-.93-.89-2-1.53-3.31-1.61-2.65-.17-4.98,1.84-6.64,3.68l2.51,1.46c.41-1.35.83-2.7,1.24-4.05.36-1.18.88-2.42.35-3.63-.92-2.12-4.1-2.57-6.07-3.11-2.52-.69-5.17-1.2-7.79-.94-.64.06-1.3.15-1.92.31-.3.08.06.22.1,0,.06-.3.01-.67.03-.98.06-1.48.13-2.96.2-4.44.06-1.39-1.64-1.85-2.56-1.06-1.48,1.26-3.26,1.73-5.17,1.48s-1.89,2.76,0,3h0Z"/><polygon class="cls-5" points="41.86 105.49 31.94 100.27 36.6 89.17 46.66 94.05 41.86 105.49"/><path class="cls-3" d="m54.85,37.74c2,1.19,3.26,3.19,3.3,5.54.02,1.46,1.42,2.56,2.85,2.17,2.18-.59,3.39-2.43,5.04-3.81,1.51-1.27,3.23-2.32,4.94-3.3,3.48-1.97,7.26-3.75,11.22-4.46,1.2-.21,1.87-1.67,1.57-2.77-.35-1.26-1.57-1.79-2.77-1.57-4.08.73-8.05,2.58-11.66,4.56-1.81.99-3.57,2.09-5.21,3.35-.76.58-1.52,1.18-2.2,1.85-.64.63-1.23,1.58-2.13,1.82l2.85,2.17c-.06-3.93-2.16-7.42-5.52-9.42-2.49-1.49-4.76,2.4-2.27,3.89h0Z"/></g></svg>