<?xml version="1.0" encoding="UTF-8"?><svg id="Layer_2" xmlns="http://www.w3.org/2000/svg" width="302.16" height="302.16" viewBox="0 0 302.16 302.16"><defs><style>.cls-1,.cls-2,.cls-3{stroke-width:0px;}.cls-4{stroke:#000;stroke-miterlimit:10;stroke-width:5px;}.cls-4,.cls-2{fill:orange;}.cls-3{fill:#fff;}</style></defs><g id="Coin_Control"><g id="Coin_Control-2"><g id="Coin"><circle class="cls-2" cx="151.08" cy="151.08" r="147.58"/><path class="cls-1" d="m151.08,7c79.57,0,144.08,64.51,144.08,144.08s-64.51,144.08-144.08,144.08S7,230.65,7,151.08,71.51,7,151.08,7m0-7c-40.35,0-78.29,15.72-106.83,44.25C15.71,72.79,0,110.72,0,151.08s15.71,78.29,44.25,106.83c28.54,28.54,66.47,44.25,106.83,44.25s78.29-15.71,106.83-44.25c28.54-28.54,44.25-66.47,44.25-106.83s-15.71-78.29-44.25-106.83C229.37,15.72,191.43,0,151.08,0h0Z"/><circle class="cls-3" cx="151.5" cy="151.66" r="123"/><path class="cls-1" d="m151.5,32.16c31.92,0,61.93,12.43,84.5,35,22.57,22.57,35,52.58,35,84.5s-12.43,61.93-35,84.5c-22.57,22.57-52.58,35-84.5,35s-61.93-12.43-84.5-35c-22.57-22.57-35-52.58-35-84.5s12.43-61.93,35-84.5c22.57-22.57,52.58-35,84.5-35m0-7c-69.86,0-126.5,56.64-126.5,126.5s56.64,126.5,126.5,126.5,126.5-56.64,126.5-126.5S221.36,25.16,151.5,25.16h0Z"/><g id="_sign"><path class="cls-4" d="m145.6,212.53v-15.15c-8.7-.15-17.7-2.85-22.95-6.6l3.6-10.05c5.4,3.6,13.2,6.45,21.6,6.45,10.65,0,17.85-6.15,17.85-14.7s-5.85-13.35-16.95-17.85c-15.3-6-24.75-12.9-24.75-25.95s8.85-21.9,22.65-24.15v-15.15h9.3v14.55c9,.3,15.15,2.7,19.5,5.25l-3.75,9.9c-3.15-1.8-9.3-5.1-18.9-5.1-11.55,0-15.9,6.9-15.9,12.9,0,7.8,5.55,11.7,18.6,17.1,15.45,6.3,23.25,14.1,23.25,27.45,0,11.85-8.25,22.95-23.7,25.5v15.6h-9.45Z"/></g></g></g></g></svg>