<?xml version="1.0" encoding="UTF-8"?><svg id="Coin_Control" xmlns="http://www.w3.org/2000/svg" width="815.1" height="424.8" viewBox="0 0 815.1 424.8"><defs><style>.cls-1{isolation:isolate;}.cls-2,.cls-3{stroke-width:0px;}.cls-3{fill:#ffe856;}.cls-4{font-family:Arial-BoldMT, Arial;font-size:120.3px;font-weight:700;}.cls-5{fill:none;stroke:#000;stroke-miterlimit:10;stroke-width:5px;}</style></defs><g id="Coin_Control-2"><g id="Coin"><circle id="SVGID" class="cls-3" cx="416.7" cy="146.6" r="144.1"/><circle class="cls-5" cx="416.7" cy="146.6" r="144.1"/><circle class="cls-5" cx="417.1" cy="147.2" r="126.5"/></g><g class="cls-1"><path class="cls-2" d="m37.1,424.8c-7.4,0-13.9-1.6-19.5-4.9-5.6-3.3-9.9-7.9-13-13.9s-4.6-12.9-4.6-20.9v-29.2c0-8,1.5-15,4.6-20.9,3.1-6,7.4-10.6,13-13.9,5.6-3.3,12.1-4.9,19.5-4.9,6.2,0,11.8,1.3,16.9,4,5.1,2.6,9.4,6.3,12.8,11.1,3.4,4.7,5.8,10.3,7,16.6h-15.3c-.9-3.4-2.5-6.4-4.7-9-2.2-2.6-4.7-4.6-7.7-6-2.9-1.4-6-2.1-9.1-2.1-6.5,0-11.8,2.3-15.8,6.9s-6,10.7-6,18.3v29.2c0,7.6,2,13.6,6,18.2s9.2,6.9,15.8,6.9c4.6,0,9-1.5,13.1-4.4s6.9-7.2,8.3-12.7h15.3c-1.2,6.3-3.6,11.9-7,16.6-3.5,4.7-7.7,8.4-12.8,11.1-5,2.6-10.6,3.9-16.8,3.9Z"/><path class="cls-2" d="m122.8,424.8c-10,0-17.7-2.9-23.1-8.7-5.5-5.8-8.2-13.9-8.2-24.4v-12.4c0-10.4,2.7-18.5,8.2-24.2s13.2-8.6,23.1-8.6,17.7,2.9,23.1,8.6c5.5,5.7,8.2,13.8,8.2,24.2v12.6c0,10.4-2.7,18.5-8.2,24.3-5.5,5.7-13.2,8.6-23.1,8.6Zm0-14.2c5.2,0,9.3-1.6,12.1-4.9,2.9-3.3,4.3-7.9,4.3-13.8v-12.6c0-5.9-1.4-10.5-4.3-13.7s-6.9-4.8-12.1-4.8-9.2,1.6-12.1,4.8c-2.9,3.2-4.3,7.8-4.3,13.7v12.6c0,5.9,1.4,10.5,4.3,13.8,2.9,3.2,6.9,4.9,12.1,4.9Z"/><path class="cls-2" d="m175.4,332.1v-14.9h14.9v14.9h-14.9Zm0,91.6v-76h14.9v76h-14.9Z"/><path class="cls-2" d="m213,423.7v-76h14.9v76h-14.9Zm46.1,0v-46.1c0-5.4-1.4-9.5-4.1-12.5-2.8-2.9-6.7-4.4-11.8-4.4s-8.7,1.3-11.3,3.9c-2.7,2.6-4,6.2-4,10.9l-1.5-14.6c2.3-4.6,5.4-8.1,9.2-10.6s8-3.7,12.6-3.7c8.3,0,14.6,2.7,19.2,8.1,4.5,5.4,6.8,13,6.8,22.9v46.1h-15.1Z"/><path class="cls-2" d="m373.4,424.8c-7.4,0-13.9-1.6-19.5-4.9s-9.9-7.9-13-13.9-4.6-12.9-4.6-20.9v-29.2c0-8,1.5-15,4.6-20.9,3.1-6,7.4-10.6,13-13.9s12.1-4.9,19.5-4.9c6.2,0,11.8,1.3,16.9,4,5.1,2.6,9.4,6.3,12.8,11.1,3.4,4.7,5.8,10.3,7,16.6h-15.3c-.9-3.4-2.5-6.4-4.7-9s-4.7-4.6-7.7-6c-2.9-1.4-6-2.1-9.1-2.1-6.5,0-11.8,2.3-15.8,6.9s-6,10.7-6,18.3v29.2c0,7.6,2,13.6,6,18.2s9.2,6.9,15.8,6.9c4.6,0,9-1.5,13.1-4.4s6.9-7.2,8.3-12.7h15.4c-1.2,6.3-3.6,11.9-7,16.6-3.5,4.7-7.7,8.4-12.8,11.1-5.1,2.6-10.7,3.9-16.9,3.9Z"/><path class="cls-2" d="m459,424.8c-10,0-17.7-2.9-23.1-8.7-5.5-5.8-8.2-13.9-8.2-24.4v-12.4c0-10.4,2.7-18.5,8.2-24.2s13.2-8.6,23.1-8.6,17.7,2.9,23.1,8.6c5.5,5.7,8.2,13.8,8.2,24.2v12.6c0,10.4-2.7,18.5-8.2,24.3-5.4,5.7-13.1,8.6-23.1,8.6Zm0-14.2c5.2,0,9.3-1.6,12.1-4.9,2.9-3.3,4.3-7.9,4.3-13.8v-12.6c0-5.9-1.4-10.5-4.3-13.7s-6.9-4.8-12.1-4.8-9.2,1.6-12.1,4.8c-2.9,3.2-4.3,7.8-4.3,13.7v12.6c0,5.9,1.4,10.5,4.3,13.8,2.9,3.2,6.9,4.9,12.1,4.9Z"/><path class="cls-2" d="m511.6,423.7v-76h14.9v76h-14.9Zm46.2,0v-46.1c0-5.4-1.4-9.5-4.1-12.5-2.8-2.9-6.7-4.4-11.8-4.4s-8.7,1.3-11.3,3.9c-2.7,2.6-4,6.2-4,10.9l-1.5-14.6c2.3-4.6,5.4-8.1,9.2-10.6s8-3.7,12.6-3.7c8.3,0,14.6,2.7,19.2,8.1,4.5,5.4,6.8,13,6.8,22.9v46.1h-15.1Z"/><path class="cls-2" d="m589.5,361.1v-13.5h34.3v13.5h-34.3Zm25.7,63c-6.3,0-10.8-1.7-13.6-5.2s-4.2-8.4-4.2-14.9v-78.5h14.9v78.5c0,1.8.4,3.2,1.1,4.2s1.8,1.5,3.2,1.5h7.2v14.2h-8.6v.2Z"/></g><g class="cls-1"><path class="cls-2" d="m644.3,423.7v-76h14.9v76h-14.9Zm41.8-58c-1.3-1.6-3-2.8-5-3.7-2-.8-4.3-1.2-7-1.2-4.7,0-8.4,1.3-11,3.9s-3.9,6.2-3.9,10.9l-1.5-14.6c2.3-4.5,5.3-8,9-10.5s7.8-3.8,12.3-3.8c3.5,0,6.6.5,9.4,1.5,2.8,1,5.3,2.5,7.4,4.4l-9.7,13.1Z"/></g><g class="cls-1"><path class="cls-2" d="m736,424.8c-10,0-17.7-2.9-23.1-8.7-5.5-5.8-8.2-13.9-8.2-24.4v-12.4c0-10.4,2.7-18.5,8.2-24.2s13.2-8.6,23.1-8.6,17.7,2.9,23.1,8.6c5.5,5.7,8.2,13.8,8.2,24.2v12.6c0,10.4-2.7,18.5-8.2,24.3-5.4,5.7-13.1,8.6-23.1,8.6Zm0-14.2c5.2,0,9.3-1.6,12.1-4.9,2.9-3.3,4.3-7.9,4.3-13.8v-12.6c0-5.9-1.4-10.5-4.3-13.7s-6.9-4.8-12.1-4.8-9.2,1.6-12.1,4.8c-2.9,3.2-4.3,7.8-4.3,13.7v12.6c0,5.9,1.4,10.5,4.3,13.8,2.9,3.2,6.9,4.9,12.1,4.9Z"/><path class="cls-2" d="m803.5,317.2v86.9c0,1.8.4,3.2,1.2,4.2s1.9,1.5,3.4,1.5h7v14.2h-8.8c-5.6,0-10-1.8-13.1-5.3s-4.7-8.5-4.7-14.9v-86.7h15v.1Z"/></g></g><text class="cls-4" transform="translate(362.02 173.12)"><tspan x="0" y="0">C</tspan></text><text class="cls-4" transform="translate(384.12 207.87)"><tspan x="0" y="0">C</tspan></text><path class="cls-2" d="m409.45,64.79l-.1,30.72c-.15,4.6-6.84,4.62-7,0,0,0-.1-30.71-.1-30.71.13-4.76,7.06-4.78,7.19,0h0Z"/><path class="cls-2" d="m431.16,197.7l.16,30.72c-.12,4.86-7.2,4.87-7.33,0,0,0,.16-30.71.16-30.71.16-4.59,6.83-4.61,7,0h0Z"/></svg>