<?xml version="1.0" encoding="UTF-8"?><svg id="Layer_2" xmlns="http://www.w3.org/2000/svg" width="293.2" height="293.2" viewBox="0 0 293.2 293.2"><defs><style>.cls-1,.cls-2,.cls-3{stroke-width:0px;}.cls-2{fill:#ffe856;}.cls-4{font-family:Arial-BoldMT, Arial;font-size:120.3px;font-weight:700;isolation:isolate;}.cls-3,.cls-5{fill:none;}.cls-5{stroke:#000;stroke-miterlimit:10;stroke-width:5px;}</style></defs><g id="Coin_Control"><g id="Coin_Control-2"><g id="Coin"><circle id="SVGID" class="cls-2" cx="146.6" cy="146.6" r="144.1"/><circle class="cls-5" cx="146.6" cy="146.6" r="144.1"/><circle class="cls-5" cx="147" cy="147.2" r="126.5"/></g></g><rect class="cls-3" x="91.9" y="87" width="87.4" height="87.7"/><text class="cls-4" transform="translate(91.92 173.12)"><tspan x="0" y="0">C</tspan></text><rect class="cls-3" x="114" y="121.7" width="88.3" height="87.7"/><text class="cls-4" transform="translate(114.02 207.87)"><tspan x="0" y="0">C</tspan></text><path class="cls-1" d="m139.4,64.8l-.1,30.7c-.2,4.6-6.8,4.6-7,0l-.1-30.7c.1-4.8,7-4.8,7.2,0h0Z"/><path class="cls-1" d="m161.1,197.7l.2,30.7c-.1,4.9-7.2,4.9-7.3,0l.2-30.7c0-4.6,6.7-4.6,6.9,0h0Z"/></g></svg>