<?xml version="1.0" encoding="UTF-8"?><svg id="Layer_2" xmlns="http://www.w3.org/2000/svg" width="840.34" height="180.64" viewBox="0 0 840.34 180.64"><defs><style>.cls-1{stroke-width:0px;}.cls-2{font-family:Bahnschrift-SemiBold, Bahnschrift;font-size:150px;font-variation-settings:'wght' 600, 'wdth' 100;font-weight:600;}.cls-3{letter-spacing:0em;}</style></defs><g id="Coin_Control"><g id="Coin_Control-2"><text class="cls-2" transform="translate(0 128.25)"><tspan x="0" y="0">Coin Cont</tspan><tspan class="cls-3" x="643.51" y="0">r</tspan><tspan x="706.05" y="0">ol</tspan></text><path class="cls-1" d="m17.17,173.07c33.41-2.48,67.27-3.59,100.75-4.41,33.58-.68,67.17-1.19,100.75-.36,67.16,2.71,134.3,5.03,201.5,1.86,113.07-4.1,226.97-4.71,340.03-.3,20.81.86,42.18,1.79,62.97,3.21,0,0,0,1.3,0,1.3-20.79,1.42-42.13,2.34-62.97,3.21-79.37,3.07-159.85,3.85-239.28,2.29-67.01-.45-134.49-5.09-201.5-4.05-33.58.39-67.17,2.48-100.75,3.32-41.98.95-83.97.18-125.94-1.06-6.01-.17-19.11-.63-25.19-.91-16.79-.68-33.58-1.53-50.38-2.81,0,0,0-1.3,0-1.3h0Z"/></g></g></svg>