<?xml version="1.0" encoding="UTF-8"?><svg id="Layer_2" xmlns="http://www.w3.org/2000/svg" width="175.46" height="175.46" xmlns:xlink="http://www.w3.org/1999/xlink" viewBox="0 0 175.46 175.46"><defs><style>.cls-1{fill:url(#linear-gradient);}.cls-1,.cls-2,.cls-3,.cls-4{stroke-width:0px;}.cls-5{font-family:Arial-BoldMT, Arial;font-size:35.78px;font-weight:700;isolation:isolate;}.cls-3{fill:#ffe856;}.cls-6{stroke:red;}.cls-6,.cls-4,.cls-7,.cls-8{fill:none;}.cls-6,.cls-7,.cls-8{stroke-miterlimit:10;stroke-width:3px;}.cls-7{stroke:#000;}.cls-8{stroke:#ed1c24;}</style><linearGradient id="linear-gradient" x1="4" y1="87.73" x2="171.46" y2="87.73" gradientTransform="translate(87.73 -36.34) rotate(45)" gradientUnits="userSpaceOnUse"><stop offset="0" stop-color="#40c1ff"/><stop offset="1" stop-color="#fff"/></linearGradient></defs><g id="Layer_3"><circle class="cls-1" cx="87.73" cy="87.73" r="83.73" transform="translate(-36.34 87.73) rotate(-45)"/><path class="cls-2" d="m87.73,8c43.96,0,79.73,35.77,79.73,79.73s-35.77,79.73-79.73,79.73S8,131.7,8,87.73,43.77,8,87.73,8m0-8C39.28,0,0,39.28,0,87.73s39.28,87.73,87.73,87.73,87.73-39.28,87.73-87.73S136.18,0,87.73,0h0Z"/><g id="Coin"><circle id="SVGID" class="cls-3" cx="87.73" cy="86.46" r="42.85"/><circle class="cls-6" cx="87.73" cy="86.46" r="42.85"/><circle class="cls-7" cx="87.85" cy="86.64" r="37.62"/><path id="bottom_line" class="cls-2" d="m92.04,101.66l.06,9.13c-.03,1.46-2.14,1.46-2.17,0l.06-9.13c0-1.37,1.99-1.37,2.05,0h0Z"/><path id="top_line" class="cls-2" d="m85.59,62.13l-.03,9.13c-.06,1.37-2.02,1.37-2.08,0l-.03-9.13c.03-1.43,2.08-1.43,2.14,0h0Z"/><rect class="cls-4" x="71.46" y="68.73" width="25.99" height="26.08"/><text class="cls-5" transform="translate(71.47 94.34)"><tspan x="0" y="0">C</tspan></text><rect class="cls-4" x="78.04" y="79.05" width="26.26" height="26.08"/><text class="cls-5" transform="translate(78.04 104.68)"><tspan x="0" y="0">C</tspan></text><line class="cls-8" x1="113.51" y1="52.23" x2="59.19" y2="117.56"/></g></g></svg>